# Blender v2.80 (sub 75) OBJ File: 'Tourch.blend'
# www.blender.org
mtllib Torch.mtl
o Cylinder
v 0.000000 -0.032651 -0.648236
v 0.000000 -0.032651 -1.268605
v 0.032651 -0.000000 -0.648236
v 0.032651 -0.000000 -1.268605
v -0.000000 0.032651 -0.648236
v 0.000000 0.032651 -1.268605
v -0.032651 -0.000000 -0.648236
v -0.032651 -0.000000 -1.268605
v 0.000000 -0.065144 -1.333907
v 0.065144 -0.000000 -1.333907
v 0.000000 0.065144 -1.333907
v -0.065144 -0.000000 -1.333907
v 0.000000 -0.065144 -1.562464
v 0.065144 -0.000000 -1.562464
v 0.000000 0.065144 -1.562464
v -0.065144 -0.000000 -1.562464
v 0.000000 -0.039512 -1.595115
v 0.039512 -0.000000 -1.595115
v 0.000000 0.039512 -1.595115
v -0.039512 -0.000000 -1.595115
v 0.000000 -0.032651 0.000000
v 0.032651 0.000000 -0.000000
v -0.000000 0.032651 -0.000000
v -0.032651 -0.000000 -0.000000
vt 1.000000 0.500000
vt 1.000000 1.000000
vt 0.750000 1.000000
vt 0.750000 0.500000
vt 0.500000 1.000000
vt 0.500000 0.500000
vt 0.750000 1.000000
vt 0.500000 1.000000
vt 0.250000 1.000000
vt 0.250000 0.500000
vt 0.000000 1.000000
vt 0.000000 0.500000
vt 0.500000 0.500000
vt 0.750000 0.500000
vt 0.250000 1.000000
vt 0.500000 1.000000
vt 0.250000 1.000000
vt 1.000000 1.000000
vt 0.000000 1.000000
vt 0.000000 1.000000
vt 0.250000 1.000000
vt 0.000000 1.000000
vt 1.000000 1.000000
vt 0.750000 1.000000
vt 0.490000 0.250000
vt 0.250000 0.490000
vt 0.010000 0.250000
vt 0.250000 0.010000
vt 0.750000 1.000000
vt 0.500000 1.000000
vt 1.000000 1.000000
vt 0.750000 0.490000
vt 0.990000 0.250000
vt 0.750000 0.010000
vt 0.510000 0.250000
vt 1.000000 0.500000
vt 0.250000 0.500000
vt 0.000000 0.500000
vn 0.7071 -0.7071 0.0000
vn 0.7071 0.7071 -0.0000
vn 0.6670 0.6670 0.3319
vn -0.7071 0.7071 -0.0000
vn -0.7071 -0.7071 0.0000
vn 0.6670 -0.6670 0.3319
vn -0.6670 0.6670 0.3319
vn -0.6670 -0.6670 0.3319
vn -0.6182 -0.6182 -0.4853
vn 0.0000 0.0000 -1.0000
vn 0.6182 0.6182 -0.4853
vn -0.6182 0.6182 -0.4853
vn 0.6182 -0.6182 -0.4853
vn 0.0000 0.0000 1.0000
usemtl Material.003
s off
f 1/1/1 2/2/1 4/3/1 3/4/1
f 3/4/2 4/3/2 6/5/2 5/6/2
f 6/5/3 4/3/3 10/7/3 11/8/3
f 5/6/4 6/5/4 8/9/4 7/10/4
f 7/10/5 8/9/5 2/11/5 1/12/5
f 3/4/2 5/6/2 23/13/2 22/14/2
f 12/15/4 11/8/4 15/16/4 16/17/4
f 4/3/6 2/2/6 9/18/6 10/7/6
f 8/9/7 6/5/7 11/8/7 12/15/7
f 2/11/8 8/9/8 12/15/8 9/19/8
f 13/20/9 16/17/9 20/21/9 17/22/9
f 10/7/1 9/18/1 13/23/1 14/24/1
f 9/19/5 12/15/5 16/17/5 13/20/5
f 11/8/2 10/7/2 14/24/2 15/16/2
f 18/25/10 17/26/10 20/27/10 19/28/10
f 15/16/11 14/24/11 18/29/11 19/30/11
f 16/17/12 15/16/12 19/30/12 20/21/12
f 14/24/13 13/23/13 17/31/13 18/29/13
f 21/32/14 22/33/14 23/34/14 24/35/14
f 1/1/1 3/4/1 22/14/1 21/36/1
f 5/6/4 7/10/4 24/37/4 23/13/4
f 7/10/5 1/12/5 21/38/5 24/37/5
