# Blender v2.80 (sub 75) OBJ File: 'Tourch.blend'
# www.blender.org
mtllib Torch.mtl
o Cylinder
v 0.000000 -0.032651 -0.032651
v 0.000000 0.587718 -0.032651
v 0.032651 -0.032651 0.000000
v 0.032651 0.587718 0.000000
v -0.000000 -0.032651 0.032651
v 0.000000 0.587718 0.032651
v -0.032651 -0.032651 -0.000000
v -0.032651 0.587718 0.000000
v 0.000000 0.653020 -0.065144
v 0.065144 0.653020 0.000000
v 0.000000 0.653020 0.065144
v -0.065144 0.653020 -0.000000
v 0.000000 0.881577 -0.065144
v 0.065144 0.881577 0.000000
v 0.000000 0.881577 0.065144
v -0.065144 0.881577 -0.000000
v 0.000000 0.914228 -0.039512
v 0.039512 0.914228 0.000000
v 0.000000 0.914228 0.039512
v -0.039512 0.914228 0.000000
vt 1.000000 0.500000
vt 1.000000 1.000000
vt 0.750000 1.000000
vt 0.750000 0.500000
vt 0.500000 1.000000
vt 0.500000 0.500000
vt 0.750000 1.000000
vt 0.500000 1.000000
vt 0.250000 1.000000
vt 0.250000 0.500000
vt 0.000000 1.000000
vt 0.000000 0.500000
vt 0.750000 0.490000
vt 0.990000 0.250000
vt 0.750000 0.010000
vt 0.510000 0.250000
vt 0.250000 1.000000
vt 0.500000 1.000000
vt 0.250000 1.000000
vt 1.000000 1.000000
vt 0.000000 1.000000
vt 0.000000 1.000000
vt 0.250000 1.000000
vt 0.000000 1.000000
vt 1.000000 1.000000
vt 0.750000 1.000000
vt 0.490000 0.250000
vt 0.250000 0.490000
vt 0.010000 0.250000
vt 0.250000 0.010000
vt 0.750000 1.000000
vt 0.500000 1.000000
vt 1.000000 1.000000
vn 0.7071 -0.0000 -0.7071
vn 0.7071 0.0000 0.7071
vn 0.6670 -0.3319 0.6670
vn -0.7071 0.0000 0.7071
vn -0.7071 0.0000 -0.7071
vn 0.0000 -1.0000 0.0000
vn 0.6670 -0.3319 -0.6670
vn -0.6670 -0.3319 0.6670
vn -0.6670 -0.3319 -0.6670
vn -0.6182 0.4853 -0.6182
vn 0.0000 1.0000 0.0000
vn 0.6182 0.4853 0.6182
vn -0.6182 0.4853 0.6182
vn 0.6182 0.4853 -0.6182
usemtl Material.003
s off
f 1/1/1 2/2/1 4/3/1 3/4/1
f 3/4/2 4/3/2 6/5/2 5/6/2
f 6/5/3 4/3/3 10/7/3 11/8/3
f 5/6/4 6/5/4 8/9/4 7/10/4
f 7/10/5 8/9/5 2/11/5 1/12/5
f 1/13/6 3/14/6 5/15/6 7/16/6
f 12/17/4 11/8/4 15/18/4 16/19/4
f 4/3/7 2/2/7 9/20/7 10/7/7
f 8/9/8 6/5/8 11/8/8 12/17/8
f 2/11/9 8/9/9 12/17/9 9/21/9
f 13/22/10 16/19/10 20/23/10 17/24/10
f 10/7/1 9/20/1 13/25/1 14/26/1
f 9/21/5 12/17/5 16/19/5 13/22/5
f 11/8/2 10/7/2 14/26/2 15/18/2
f 18/27/11 17/28/11 20/29/11 19/30/11
f 15/18/12 14/26/12 18/31/12 19/32/12
f 16/19/13 15/18/13 19/32/13 20/23/13
f 14/26/14 13/25/14 17/33/14 18/31/14
