{
    "accessors" : [
        {
            "bufferView" : 0,
            "componentType" : 5123,
            "count" : 4380,
            "max" : [
                908
            ],
            "min" : [
                0
            ],
            "type" : "SCALAR"
        },
        {
            "bufferView" : 1,
            "componentType" : 5126,
            "count" : 909,
            "max" : [
                0.6409828662872314,
                2.0946431159973145,
                0.3844710886478424
            ],
            "min" : [
                -0.6409828662872314,
                -0.00017165674944408238,
                -0.10628245770931244
            ],
            "type" : "VEC3"
        },
        {
            "bufferView" : 2,
            "componentType" : 5126,
            "count" : 909,
            "max" : [
                0.9947507977485657,
                0.9842524528503418,
                0.9998779296875
            ],
            "min" : [
                -0.9947507977485657,
                -0.9968260526657104,
                -0.999481201171875
            ],
            "type" : "VEC3"
        },
        {
            "bufferView" : 3,
            "componentType" : 5126,
            "count" : 909,
            "max" : [
                0.999997615814209,
                0.9999498724937439,
                0.9928737282752991,
                1.0
            ],
            "min" : [
                -0.9985526204109192,
                -0.9998518824577332,
                -0.9989523887634277,
                -1.0
            ],
            "type" : "VEC4"
        },
        {
            "bufferView" : 4,
            "componentType" : 5126,
            "count" : 909,
            "max" : [
                0.9933000206947327,
                0.9881999995559454
            ],
            "min" : [
                0.009600000455975533,
                0.02670001983642578
            ],
            "type" : "VEC2"
        },
        {
            "bufferView" : 5,
            "componentType" : 5123,
            "count" : 909,
            "max" : [
                13,
                13,
                13,
                13
            ],
            "min" : [
                0,
                0,
                0,
                0
            ],
            "type" : "VEC4"
        },
        {
            "bufferView" : 6,
            "componentType" : 5126,
            "count" : 909,
            "max" : [
                1.0001041889190674,
                0.9999995231628418,
                0.9378039240837097,
                0.900763750076294
            ],
            "min" : [
                0.0,
                0.0,
                0.0,
                0.0
            ],
            "type" : "VEC4"
        },
        {
            "bufferView" : 7,
            "componentType" : 5123,
            "count" : 909,
            "max" : [
                7,
                4,
                0,
                0
            ],
            "min" : [
                0,
                0,
                0,
                0
            ],
            "type" : "VEC4"
        },
        {
            "bufferView" : 8,
            "componentType" : 5126,
            "count" : 909,
            "max" : [
                0.6215537786483765,
                0.6047964692115784,
                0.0,
                0.0
            ],
            "min" : [
                0.0,
                0.0,
                0.0,
                0.0
            ],
            "type" : "VEC4"
        },
        {
            "bufferView" : 9,
            "componentType" : 5126,
            "count" : 14,
            "max" : [
                8.144927978515625,
                7.8997039794921875,
                8.144323348999023,
                0.0,
                2.0744504928588867,
                8.144322395324707,
                7.998616695404053,
                0.0,
                8.13854694366455,
                5.405723571777344,
                7.83881139755249,
                0.0,
                4.661621570587158,
                9.611909866333008,
                -0.13353416323661804,
                1.0
            ],
            "min" : [
                -4.475950241088867,
                -7.876662731170654,
                -8.122220039367676,
                0.0,
                -4.121492862701416,
                -8.12221908569336,
                0.09932126104831696,
                0.0,
                -8.144928932189941,
                -2.2119882106781006,
                -1.149809718132019,
                0.0,
                -2.047173500061035,
                -9.100192070007324,
                -13.8031587600708,
                1.0
            ],
            "type" : "MAT4"
        },
        {
            "bufferView" : 10,
            "componentType" : 5126,
            "count" : 14,
            "max" : [
                8.144927978515625,
                7.8997039794921875,
                8.144323348999023,
                0.0,
                2.0744504928588867,
                8.144322395324707,
                7.998616695404053,
                0.0,
                8.13854694366455,
                5.405723571777344,
                7.83881139755249,
                0.0,
                4.661621570587158,
                9.611909866333008,
                -0.13353416323661804,
                1.0
            ],
            "min" : [
                -4.475950241088867,
                -7.876662731170654,
                -8.122220039367676,
                0.0,
                -4.121492862701416,
                -8.12221908569336,
                0.09932126104831696,
                0.0,
                -8.144928932189941,
                -2.2119882106781006,
                -1.149809718132019,
                0.0,
                -2.047173500061035,
                -9.100192070007324,
                -13.8031587600708,
                1.0
            ],
            "type" : "MAT4"
        },
        {
            "bufferView" : 11,
            "componentType" : 5126,
            "count" : 14,
            "max" : [
                8.144927978515625,
                7.8997039794921875,
                8.144323348999023,
                0.0,
                2.0744504928588867,
                8.144322395324707,
                7.998616695404053,
                0.0,
                8.13854694366455,
                5.405723571777344,
                7.83881139755249,
                0.0,
                4.661621570587158,
                9.611909866333008,
                -0.13353416323661804,
                1.0
            ],
            "min" : [
                -4.475950241088867,
                -7.876662731170654,
                -8.122220039367676,
                0.0,
                -4.121492862701416,
                -8.12221908569336,
                0.09932126104831696,
                0.0,
                -8.144928932189941,
                -2.2119882106781006,
                -1.149809718132019,
                0.0,
                -2.047173500061035,
                -9.100192070007324,
                -13.8031587600708,
                1.0
            ],
            "type" : "MAT4"
        },
        {
            "bufferView" : 12,
            "componentType" : 5126,
            "count" : 14,
            "max" : [
                8.144927978515625,
                7.8997039794921875,
                8.144323348999023,
                0.0,
                2.0744504928588867,
                8.144322395324707,
                7.998616695404053,
                0.0,
                8.13854694366455,
                5.405723571777344,
                7.83881139755249,
                0.0,
                4.661621570587158,
                9.611909866333008,
                -0.13353416323661804,
                1.0
            ],
            "min" : [
                -4.475950241088867,
                -7.876662731170654,
                -8.122220039367676,
                0.0,
                -4.121492862701416,
                -8.12221908569336,
                0.09932126104831696,
                0.0,
                -8.144928932189941,
                -2.2119882106781006,
                -1.149809718132019,
                0.0,
                -2.047173500061035,
                -9.100192070007324,
                -13.8031587600708,
                1.0
            ],
            "type" : "MAT4"
        },
        {
            "bufferView" : 13,
            "componentType" : 5126,
            "count" : 14,
            "max" : [
                8.144927978515625,
                7.8997039794921875,
                8.144323348999023,
                0.0,
                2.0744504928588867,
                8.144322395324707,
                7.998616695404053,
                0.0,
                8.13854694366455,
                5.405723571777344,
                7.83881139755249,
                0.0,
                4.661621570587158,
                9.611909866333008,
                -0.13353416323661804,
                1.0
            ],
            "min" : [
                -4.475950241088867,
                -7.876662731170654,
                -8.122220039367676,
                0.0,
                -4.121492862701416,
                -8.12221908569336,
                0.09932126104831696,
                0.0,
                -8.144928932189941,
                -2.2119882106781006,
                -1.149809718132019,
                0.0,
                -2.047173500061035,
                -9.100192070007324,
                -13.8031587600708,
                1.0
            ],
            "type" : "MAT4"
        }
    ],
    "asset" : {
        "generator" : "Khronos Blender glTF 2.0 exporter",
        "version" : "2.0"
    },
    "bufferViews" : [
        {
            "buffer" : 0,
            "byteLength" : 8760,
            "byteOffset" : 0,
            "target" : 34963
        },
        {
            "buffer" : 0,
            "byteLength" : 10908,
            "byteOffset" : 8760,
            "target" : 34962
        },
        {
            "buffer" : 0,
            "byteLength" : 10908,
            "byteOffset" : 19668,
            "target" : 34962
        },
        {
            "buffer" : 0,
            "byteLength" : 14544,
            "byteOffset" : 30576,
            "target" : 34962
        },
        {
            "buffer" : 0,
            "byteLength" : 7272,
            "byteOffset" : 45120,
            "target" : 34962
        },
        {
            "buffer" : 0,
            "byteLength" : 7272,
            "byteOffset" : 52392,
            "target" : 34962
        },
        {
            "buffer" : 0,
            "byteLength" : 14544,
            "byteOffset" : 59664,
            "target" : 34962
        },
        {
            "buffer" : 0,
            "byteLength" : 7272,
            "byteOffset" : 74208,
            "target" : 34962
        },
        {
            "buffer" : 0,
            "byteLength" : 14544,
            "byteOffset" : 81480,
            "target" : 34962
        },
        {
            "buffer" : 0,
            "byteLength" : 896,
            "byteOffset" : 96024
        },
        {
            "buffer" : 0,
            "byteLength" : 896,
            "byteOffset" : 96920
        },
        {
            "buffer" : 0,
            "byteLength" : 896,
            "byteOffset" : 97816
        },
        {
            "buffer" : 0,
            "byteLength" : 896,
            "byteOffset" : 98712
        },
        {
            "buffer" : 0,
            "byteLength" : 896,
            "byteOffset" : 99608
        }
    ],
    "buffers" : [
        {
            "byteLength" : 100504,
            "uri" : "firstHuman_rigged_1.bin"
        }
    ],
    "images" : [
        {
            "name" : "young_lightskinned_female_diffuse2",
            "uri" : "young_lightskinned_female_diffuse2.png"
        }
    ],
    "materials" : [
        {
            "alphaMode" : "BLEND",
            "name" : "young_caucasian_female2",
            "pbrMetallicRoughness" : {
                "baseColorFactor" : [
                    1.0,
                    1.0,
                    1.0,
                    0.0
                ],
                "baseColorTexture" : {
                    "index" : 0
                },
                "metallicFactor" : 0.0
            }
        }
    ],
    "meshes" : [
        {
            "name" : "proxy741.obj.001",
            "primitives" : [
                {
                    "attributes" : {
                        "JOINTS_0" : 5,
                        "JOINTS_1" : 7,
                        "NORMAL" : 2,
                        "POSITION" : 1,
                        "TANGENT" : 3,
                        "TEXCOORD_0" : 4,
                        "WEIGHTS_0" : 6,
                        "WEIGHTS_1" : 8
                    },
                    "indices" : 0,
                    "material" : 0
                }
            ]
        }
    ],
    "nodes" : [
        {
            "children" : [
                1,
                2
            ],
            "name" : "Armature",
            "scale" : [
                0.12277579307556152,
                0.12277579307556152,
                0.12277579307556152
            ],
            "translation" : [
                0.0027694962918758392,
                0.9946243762969971,
                0.0678921639919281
            ]
        },
        {
            "mesh" : 0,
            "name" : "proxy741.obj",
            "rotation" : [
                0.0,
                0.0,
                1.143438677075892e-10,
                1.0
            ],
            "scale" : [
                8.144927978515625,
                8.144927978515625,
                8.144927978515625
            ],
            "skin" : 0,
            "translation" : [
                -0.022557344287633896,
                -8.101143836975098,
                -0.552976667881012
            ]
        },
        {
            "children" : [
                3,
                6,
                9
            ],
            "name" : "Armature_Bone",
            "rotation" : [
                -0.13708347082138062,
                0.0,
                0.0,
                0.9905595779418945
            ]
        },
        {
            "children" : [
                4
            ],
            "name" : "Armature_Bone.001",
            "rotation" : [
                -0.5897632837295532,
                -0.2456233948469162,
                -0.7280076146125793,
                0.24870307743549347
            ],
            "scale" : [
                1.0,
                0.9999999403953552,
                0.9999999403953552
            ],
            "translation" : [
                0.0,
                1.0390515327453613,
                0.0
            ]
        },
        {
            "children" : [
                5
            ],
            "name" : "Armature_Bone.002",
            "rotation" : [
                -0.19756096601486206,
                -0.3083650767803192,
                -0.5267513990402222,
                0.7670812606811523
            ],
            "scale" : [
                1.0000001192092896,
                1.0,
                0.9999998211860657
            ],
            "translation" : [
                2.2351741790771484e-08,
                1.703178882598877,
                -7.462787010581451e-08
            ]
        },
        {
            "name" : "Armature_Bone.003",
            "rotation" : [
                -0.08610834926366806,
                0.06513522565364838,
                0.6688425540924072,
                0.7355218529701233
            ],
            "scale" : [
                1.0,
                0.9999998807907104,
                0.9999999403953552
            ],
            "translation" : [
                -1.7695128917694092e-08,
                3.10990571975708,
                4.817309218196897e-09
            ]
        },
        {
            "children" : [
                7
            ],
            "name" : "Armature_Bone.004",
            "rotation" : [
                -0.6403003931045532,
                0.2350662648677826,
                0.633187472820282,
                0.36583176255226135
            ],
            "scale" : [
                0.9999998807907104,
                0.9999999403953552,
                1.0
            ],
            "translation" : [
                0.0,
                1.0390515327453613,
                0.0
            ]
        },
        {
            "children" : [
                8
            ],
            "name" : "Armature_Bone.005",
            "rotation" : [
                -0.4060765206813812,
                -0.29330208897590637,
                -0.5833082795143127,
                0.6393960118293762
            ],
            "scale" : [
                1.0000001192092896,
                1.0000001192092896,
                1.0000001192092896
            ],
            "translation" : [
                -1.7229467630386353e-08,
                1.6035617589950562,
                9.499490261077881e-08
            ]
        },
        {
            "name" : "Armature_Bone.006",
            "rotation" : [
                -0.05460307002067566,
                0.19308602809906006,
                -0.1988697350025177,
                0.9592638611793518
            ],
            "scale" : [
                1.0,
                1.0000001192092896,
                1.0
            ],
            "translation" : [
                -3.725290298461914e-09,
                3.3473267555236816,
                6.705522537231445e-08
            ]
        },
        {
            "children" : [
                10,
                13
            ],
            "name" : "Armature_Bone.007",
            "rotation" : [
                0.09265963733196259,
                0.6998313665390015,
                0.1012021005153656,
                0.7010053396224976
            ],
            "scale" : [
                1.0,
                1.0,
                0.9999998807907104
            ],
            "translation" : [
                0.0,
                1.0390515327453613,
                0.0
            ]
        },
        {
            "children" : [
                11
            ],
            "name" : "Armature_Bone.008",
            "rotation" : [
                -0.7807601690292358,
                -0.04008552059531212,
                -0.0319734551012516,
                0.6227234601974487
            ],
            "scale" : [
                0.9999998807907104,
                0.9999999403953552,
                0.9999999403953552
            ],
            "translation" : [
                4.365375616544043e-09,
                4.958746433258057,
                -6.577920430572703e-10
            ]
        },
        {
            "children" : [
                12
            ],
            "name" : "Armature_Bone.009",
            "rotation" : [
                -0.2787281572818756,
                -0.009259438142180443,
                0.06408224999904633,
                0.9581849575042725
            ],
            "translation" : [
                -2.9802322387695312e-08,
                1.7299271821975708,
                3.7744919723081694e-07
            ]
        },
        {
            "name" : "Armature_Bone.010",
            "rotation" : [
                -0.042068202048540115,
                0.007155782077461481,
                0.34029126167297363,
                0.9393513798713684
            ],
            "scale" : [
                0.9999999403953552,
                1.0,
                1.0
            ],
            "translation" : [
                2.2351741790771484e-08,
                2.479297399520874,
                3.620516508817673e-08
            ]
        },
        {
            "children" : [
                14
            ],
            "name" : "Armature_Bone.011",
            "rotation" : [
                -0.04586551710963249,
                -0.6306906342506409,
                -0.7718704342842102,
                0.0658925250172615
            ],
            "scale" : [
                0.9999999403953552,
                0.9999997019767761,
                0.9999998211860657
            ],
            "translation" : [
                4.365375616544043e-09,
                4.958746433258057,
                -6.577920430572703e-10
            ]
        },
        {
            "children" : [
                15
            ],
            "name" : "Armature_Bone.012",
            "rotation" : [
                -0.3334582448005676,
                0.11616498231887817,
                -0.1554684191942215,
                0.9225730895996094
            ],
            "scale" : [
                0.9999999403953552,
                1.0,
                1.0
            ],
            "translation" : [
                5.960464477539063e-08,
                1.9099024534225464,
                1.0617077350616455e-07
            ]
        },
        {
            "name" : "Armature_Bone.013",
            "rotation" : [
                0.08361077308654785,
                0.016237417235970497,
                -0.2463323473930359,
                0.9654357433319092
            ],
            "scale" : [
                0.9999999403953552,
                1.0,
                0.9999998807907104
            ],
            "translation" : [
                0.0,
                2.262749433517456,
                2.1606683731079102e-07
            ]
        }
    ],
    "samplers" : [
        {}
    ],
    "scene" : 0,
    "scenes" : [
        {
            "name" : "Scene",
            "nodes" : [
                0
            ]
        }
    ],
    "skins" : [
        {
            "inverseBindMatrices" : 9,
            "joints" : [
                2,
                3,
                4,
                5,
                6,
                7,
                8,
                9,
                10,
                11,
                12,
                13,
                14,
                15
            ],
            "skeleton" : 0
        },
        {
            "inverseBindMatrices" : 10,
            "joints" : [
                2,
                3,
                4,
                5,
                6,
                7,
                8,
                9,
                10,
                11,
                12,
                13,
                14,
                15
            ],
            "skeleton" : 0
        },
        {
            "inverseBindMatrices" : 11,
            "joints" : [
                2,
                3,
                4,
                5,
                6,
                7,
                8,
                9,
                10,
                11,
                12,
                13,
                14,
                15
            ],
            "skeleton" : 0
        },
        {
            "inverseBindMatrices" : 12,
            "joints" : [
                2,
                3,
                4,
                5,
                6,
                7,
                8,
                9,
                10,
                11,
                12,
                13,
                14,
                15
            ],
            "skeleton" : 0
        },
        {
            "inverseBindMatrices" : 13,
            "joints" : [
                2,
                3,
                4,
                5,
                6,
                7,
                8,
                9,
                10,
                11,
                12,
                13,
                14,
                15
            ],
            "skeleton" : 0
        }
    ],
    "textures" : [
        {
            "sampler" : 0,
            "source" : 0
        }
    ]
}
