{
    "accessors" : [
        {
            "bufferView" : 0,
            "componentType" : 5123,
            "count" : 6120,
            "max" : [
                1075
            ],
            "min" : [
                0
            ],
            "type" : "SCALAR"
        },
        {
            "bufferView" : 1,
            "componentType" : 5126,
            "count" : 1076,
            "max" : [
                0.05770231783390045,
                1.9823802709579468,
                0.16616345942020416
            ],
            "min" : [
                -0.05770231783390045,
                1.9433443546295166,
                0.13702847063541412
            ],
            "type" : "VEC3"
        },
        {
            "bufferView" : 2,
            "componentType" : 5126,
            "count" : 1076,
            "max" : [
                0.999969482421875,
                0.999786376953125,
                0.99920654296875
            ],
            "min" : [
                -0.999969482421875,
                -0.9998779296875,
                -0.28205206990242004
            ],
            "type" : "VEC3"
        },
        {
            "bufferView" : 3,
            "componentType" : 5126,
            "count" : 1076,
            "max" : [
                0.9944472312927246,
                0.8084856867790222,
                0.9998812079429626,
                1.0
            ],
            "min" : [
                -0.8160280585289001,
                -0.6534877419471741,
                -0.9998453259468079,
                -1.0
            ],
            "type" : "VEC4"
        },
        {
            "bufferView" : 4,
            "componentType" : 5126,
            "count" : 1076,
            "max" : [
                0.991100013256073,
                0.9890000000596046
            ],
            "min" : [
                0.03620000183582306,
                0.02369999885559082
            ],
            "type" : "VEC2"
        },
        {
            "bufferView" : 5,
            "componentType" : 5123,
            "count" : 4380,
            "max" : [
                908
            ],
            "min" : [
                0
            ],
            "type" : "SCALAR"
        },
        {
            "bufferView" : 6,
            "componentType" : 5126,
            "count" : 909,
            "max" : [
                0.6409828662872314,
                2.0946431159973145,
                0.3844710886478424
            ],
            "min" : [
                -0.6409828662872314,
                -0.00017165674944408238,
                -0.10628245770931244
            ],
            "type" : "VEC3"
        },
        {
            "bufferView" : 7,
            "componentType" : 5126,
            "count" : 909,
            "max" : [
                0.9947507977485657,
                0.9842524528503418,
                0.9998779296875
            ],
            "min" : [
                -0.9947507977485657,
                -0.9968260526657104,
                -0.999481201171875
            ],
            "type" : "VEC3"
        },
        {
            "bufferView" : 8,
            "componentType" : 5126,
            "count" : 909,
            "max" : [
                0.999997615814209,
                0.9999498724937439,
                0.9928737282752991,
                1.0
            ],
            "min" : [
                -0.9985526204109192,
                -0.9998518824577332,
                -0.9989523887634277,
                -1.0
            ],
            "type" : "VEC4"
        },
        {
            "bufferView" : 9,
            "componentType" : 5126,
            "count" : 909,
            "max" : [
                0.9933000206947327,
                0.9881999995559454
            ],
            "min" : [
                0.009600000455975533,
                0.02670001983642578
            ],
            "type" : "VEC2"
        }
    ],
    "asset" : {
        "generator" : "Khronos Blender glTF 2.0 exporter",
        "version" : "2.0"
    },
    "bufferViews" : [
        {
            "buffer" : 0,
            "byteLength" : 12240,
            "byteOffset" : 0,
            "target" : 34963
        },
        {
            "buffer" : 0,
            "byteLength" : 12912,
            "byteOffset" : 12240,
            "target" : 34962
        },
        {
            "buffer" : 0,
            "byteLength" : 12912,
            "byteOffset" : 25152,
            "target" : 34962
        },
        {
            "buffer" : 0,
            "byteLength" : 17216,
            "byteOffset" : 38064,
            "target" : 34962
        },
        {
            "buffer" : 0,
            "byteLength" : 8608,
            "byteOffset" : 55280,
            "target" : 34962
        },
        {
            "buffer" : 0,
            "byteLength" : 8760,
            "byteOffset" : 63888,
            "target" : 34963
        },
        {
            "buffer" : 0,
            "byteLength" : 10908,
            "byteOffset" : 72648,
            "target" : 34962
        },
        {
            "buffer" : 0,
            "byteLength" : 10908,
            "byteOffset" : 83556,
            "target" : 34962
        },
        {
            "buffer" : 0,
            "byteLength" : 14544,
            "byteOffset" : 94464,
            "target" : 34962
        },
        {
            "buffer" : 0,
            "byteLength" : 7272,
            "byteOffset" : 109008,
            "target" : 34962
        }
    ],
    "buffers" : [
        {
            "byteLength" : 116280,
            "uri" : "firstHuman.bin"
        }
    ],
    "images" : [
        {
            "name" : "brown_eye",
            "uri" : "brown_eye.png"
        },
        {
            "name" : "young_lightskinned_female_diffuse2",
            "uri" : "young_lightskinned_female_diffuse2.png"
        }
    ],
    "materials" : [
        {
            "alphaMode" : "BLEND",
            "name" : "Eye_brown",
            "pbrMetallicRoughness" : {
                "baseColorFactor" : [
                    1.0,
                    1.0,
                    1.0,
                    0.0
                ],
                "baseColorTexture" : {
                    "index" : 0
                },
                "metallicFactor" : 0.0
            }
        },
        {
            "alphaMode" : "BLEND",
            "name" : "young_caucasian_female2",
            "pbrMetallicRoughness" : {
                "baseColorFactor" : [
                    1.0,
                    1.0,
                    1.0,
                    0.0
                ],
                "baseColorTexture" : {
                    "index" : 1
                },
                "metallicFactor" : 0.0
            }
        }
    ],
    "meshes" : [
        {
            "name" : "high-poly.obj.001",
            "primitives" : [
                {
                    "attributes" : {
                        "NORMAL" : 2,
                        "POSITION" : 1,
                        "TANGENT" : 3,
                        "TEXCOORD_0" : 4
                    },
                    "indices" : 0,
                    "material" : 0
                }
            ]
        },
        {
            "name" : "proxy741.obj.001",
            "primitives" : [
                {
                    "attributes" : {
                        "NORMAL" : 7,
                        "POSITION" : 6,
                        "TANGENT" : 8,
                        "TEXCOORD_0" : 9
                    },
                    "indices" : 5,
                    "material" : 1
                }
            ]
        }
    ],
    "nodes" : [
        {
            "mesh" : 0,
            "name" : "high-poly.obj"
        },
        {
            "mesh" : 1,
            "name" : "proxy741.obj"
        }
    ],
    "samplers" : [
        {}
    ],
    "scene" : 0,
    "scenes" : [
        {
            "name" : "Scene",
            "nodes" : [
                1,
                0
            ]
        }
    ],
    "textures" : [
        {
            "sampler" : 0,
            "source" : 0
        },
        {
            "sampler" : 0,
            "source" : 1
        }
    ]
}
