{
    "accessors" : [
        {
            "bufferView" : 0,
            "componentType" : 5125,
            "count" : 123258,
            "max" : [
                82203
            ],
            "min" : [
                0
            ],
            "type" : "SCALAR"
        },
        {
            "bufferView" : 1,
            "componentType" : 5126,
            "count" : 82204,
            "max" : [
                0.9468392729759216,
                2.805102825164795,
                0.24023820459842682
            ],
            "min" : [
                -0.8815905451774597,
                -0.0021213293075561523,
                -0.47335392236709595
            ],
            "type" : "VEC3"
        },
        {
            "bufferView" : 2,
            "componentType" : 5126,
            "count" : 82204,
            "max" : [
                0.9999966025352478,
                0.9999420046806335,
                0.9999256134033203
            ],
            "min" : [
                -0.999999463558197,
                -0.9999947547912598,
                -0.99998539686203
            ],
            "type" : "VEC3"
        },
        {
            "bufferView" : 3,
            "componentType" : 5126,
            "count" : 82204,
            "max" : [
                0.9998667240142822,
                0.9915288686752319,
                0.9989660978317261,
                1.0
            ],
            "min" : [
                -0.9976664781570435,
                -0.9906785488128662,
                -0.9999796152114868,
                1.0
            ],
            "type" : "VEC4"
        },
        {
            "bufferView" : 4,
            "componentType" : 5126,
            "count" : 82204,
            "max" : [
                1.0,
                1.0
            ],
            "min" : [
                0.0,
                5.960464477539063e-08
            ],
            "type" : "VEC2"
        },
        {
            "bufferView" : 5,
            "componentType" : 5123,
            "count" : 82204,
            "max" : [
                15,
                15,
                13,
                13
            ],
            "min" : [
                0,
                0,
                0,
                0
            ],
            "type" : "VEC4"
        },
        {
            "bufferView" : 6,
            "componentType" : 5126,
            "count" : 82204,
            "max" : [
                1.0000001192092896,
                0.9749960899353027,
                0.8986021280288696,
                0.6746168732643127
            ],
            "min" : [
                6.165355443954468e-06,
                0.0,
                0.0,
                0.0
            ],
            "type" : "VEC4"
        },
        {
            "bufferView" : 7,
            "componentType" : 5123,
            "count" : 82204,
            "max" : [
                7,
                0,
                0,
                0
            ],
            "min" : [
                0,
                0,
                0,
                0
            ],
            "type" : "VEC4"
        },
        {
            "bufferView" : 8,
            "componentType" : 5126,
            "count" : 82204,
            "max" : [
                0.09614028036594391,
                0.0,
                0.0,
                0.0
            ],
            "min" : [
                0.0,
                0.0,
                0.0,
                0.0
            ],
            "type" : "VEC4"
        },
        {
            "bufferView" : 9,
            "componentType" : 5126,
            "count" : 16,
            "max" : [
                1.0,
                0.8523681163787842,
                0.9996481537818909,
                0.0,
                0.8523678779602051,
                0.9999998807907104,
                0.9981119632720947,
                0.0,
                0.9999999403953552,
                0.9981124401092529,
                1.0,
                0.0,
                1.6853580474853516,
                0.8870723843574524,
                1.5412662029266357,
                1.0
            ],
            "min" : [
                -1.0000004768371582,
                -0.8523679971694946,
                -0.9999851584434509,
                0.0,
                -0.8523680567741394,
                -0.9994913339614868,
                -0.721930205821991,
                0.0,
                -0.024609051644802094,
                -0.10494475811719894,
                -0.0009442944428883493,
                0.0,
                -1.6820350885391235,
                -2.0762457847595215,
                -1.6281671524047852,
                1.0
            ],
            "type" : "MAT4"
        }
    ],
    "asset" : {
        "generator" : "Khronos Blender glTF 2.0 exporter",
        "version" : "2.0"
    },
    "bufferViews" : [
        {
            "buffer" : 0,
            "byteLength" : 493032,
            "byteOffset" : 0,
            "target" : 34963
        },
        {
            "buffer" : 0,
            "byteLength" : 986448,
            "byteOffset" : 493032,
            "target" : 34962
        },
        {
            "buffer" : 0,
            "byteLength" : 986448,
            "byteOffset" : 1479480,
            "target" : 34962
        },
        {
            "buffer" : 0,
            "byteLength" : 1315264,
            "byteOffset" : 2465928,
            "target" : 34962
        },
        {
            "buffer" : 0,
            "byteLength" : 657632,
            "byteOffset" : 3781192,
            "target" : 34962
        },
        {
            "buffer" : 0,
            "byteLength" : 657632,
            "byteOffset" : 4438824,
            "target" : 34962
        },
        {
            "buffer" : 0,
            "byteLength" : 1315264,
            "byteOffset" : 5096456,
            "target" : 34962
        },
        {
            "buffer" : 0,
            "byteLength" : 657632,
            "byteOffset" : 6411720,
            "target" : 34962
        },
        {
            "buffer" : 0,
            "byteLength" : 1315264,
            "byteOffset" : 7069352,
            "target" : 34962
        },
        {
            "buffer" : 0,
            "byteLength" : 1024,
            "byteOffset" : 8384616
        }
    ],
    "buffers" : [
        {
            "byteLength" : 8385640,
            "uri" : "character.bin"
        }
    ],
    "images" : [
        {
            "name" : "character",
            "uri" : "character.png"
        }
    ],
    "materials" : [
        {
            "name" : "Material.001",
            "pbrMetallicRoughness" : {
                "baseColorFactor" : [
                    0.6400000190734865,
                    0.6400000190734865,
                    0.6400000190734865,
                    1.0
                ],
                "baseColorTexture" : {
                    "index" : 0
                },
                "metallicFactor" : 0.0
            }
        }
    ],
    "meshes" : [
        {
            "name" : "Group1",
            "primitives" : [
                {
                    "attributes" : {
                        "JOINTS_0" : 5,
                        "JOINTS_1" : 7,
                        "NORMAL" : 2,
                        "POSITION" : 1,
                        "TANGENT" : 3,
                        "TEXCOORD_0" : 4,
                        "WEIGHTS_0" : 6,
                        "WEIGHTS_1" : 8
                    },
                    "indices" : 0,
                    "material" : 0
                }
            ]
        }
    ],
    "nodes" : [
        {
            "children" : [
                1,
                2
            ],
            "name" : "Armature",
            "translation" : [
                -0.019570834934711456,
                0.9371698498725891,
                0.04047761484980583
            ]
        },
        {
            "mesh" : 0,
            "name" : "Group1",
            "skin" : 0,
            "translation" : [
                0.019570834934711456,
                -0.9371698498725891,
                -0.04047761112451553
            ]
        },
        {
            "children" : [
                3,
                12,
                15
            ],
            "name" : "Armature_Bone",
            "rotation" : [
                0.04992980137467384,
                0.00035750240203924477,
                0.007151072379201651,
                0.9987271428108215
            ],
            "translation" : [
                0.0,
                0.0,
                -0.09912122040987015
            ]
        },
        {
            "children" : [
                4,
                6,
                9
            ],
            "name" : "Armature_Bone.001",
            "rotation" : [
                -0.10233892500400543,
                1.8744298358797096e-05,
                -0.007159976288676262,
                0.994723916053772
            ],
            "translation" : [
                -3.118399982682263e-11,
                0.2675668001174927,
                -7.73206920712255e-09
            ]
        },
        {
            "children" : [
                5
            ],
            "name" : "Armature_Bone.002",
            "rotation" : [
                0.052545059472322464,
                -9.940203521408009e-11,
                -1.889135514687723e-09,
                0.9986186027526855
            ],
            "translation" : [
                -4.1413830698111553e-11,
                0.7628709673881531,
                -3.7200080793553525e-09
            ]
        },
        {
            "name" : "Armature_Bone.003",
            "rotation" : [
                -0.0019319852581247687,
                -0.7071129679679871,
                -0.0019319434650242329,
                0.7070953845977783
            ],
            "scale" : [
                1.0,
                0.9999998211860657,
                0.9999999403953552
            ],
            "translation" : [
                0.0,
                0.1143706738948822,
                4.721849133915157e-09
            ]
        },
        {
            "children" : [
                7
            ],
            "name" : "Armature_Bone.007",
            "rotation" : [
                0.025662178173661232,
                0.04585196077823639,
                -0.871417760848999,
                0.48771941661834717
            ],
            "scale" : [
                0.9999998211860657,
                0.9999999403953552,
                0.9999999403953552
            ],
            "translation" : [
                0.19544370472431183,
                0.6734781265258789,
                -0.013636831194162369
            ]
        },
        {
            "children" : [
                8
            ],
            "name" : "Armature_Bone.008",
            "rotation" : [
                0.010198444128036499,
                -0.7068045735359192,
                -0.08273264020681381,
                0.7024803161621094
            ],
            "scale" : [
                0.9999999403953552,
                0.9999999403953552,
                1.0
            ],
            "translation" : [
                2.3126787596083886e-08,
                0.3622857928276062,
                2.2116637410363182e-09
            ]
        },
        {
            "name" : "Armature_Bone.009",
            "rotation" : [
                -0.09159273654222488,
                -0.010740336030721664,
                -0.01604459621012211,
                0.9956094026565552
            ],
            "scale" : [
                0.9999998807907104,
                1.0000001192092896,
                1.0
            ],
            "translation" : [
                7.450580596923828e-09,
                0.28229624032974243,
                7.185735739767551e-08
            ]
        },
        {
            "children" : [
                10
            ],
            "name" : "Armature_Bone.010",
            "rotation" : [
                0.02566334418952465,
                -0.04585261642932892,
                0.871417760848999,
                0.4877193570137024
            ],
            "scale" : [
                1.0,
                1.0,
                0.9999999403953552
            ],
            "translation" : [
                -0.14232423901557922,
                0.6734781265258789,
                -0.013636831194162369
            ]
        },
        {
            "children" : [
                11
            ],
            "name" : "Armature_Bone.011",
            "rotation" : [
                0.08326322585344315,
                -0.5723261833190918,
                0.003991010133177042,
                0.8157781958580017
            ],
            "scale" : [
                0.9999999403953552,
                1.0,
                1.0
            ],
            "translation" : [
                -3.649236646197096e-08,
                0.3622857332229614,
                1.3043404578638729e-08
            ]
        },
        {
            "name" : "Armature_Bone.012",
            "rotation" : [
                0.09196321666240692,
                -0.008297108113765717,
                0.01376379281282425,
                0.9956327080726624
            ],
            "scale" : [
                1.0000001192092896,
                1.0,
                1.0
            ],
            "translation" : [
                0.0,
                0.282296359539032,
                2.2351741790771484e-08
            ]
        },
        {
            "children" : [
                13
            ],
            "name" : "Armature_Bone.004",
            "rotation" : [
                -0.00019588686700444669,
                -0.09639663994312286,
                -0.9936135411262512,
                0.05865021049976349
            ],
            "scale" : [
                1.0000001192092896,
                1.0,
                1.0000003576278687
            ],
            "translation" : [
                0.15916836261749268,
                0.16032521426677704,
                0.31681761145591736
            ]
        },
        {
            "children" : [
                14
            ],
            "name" : "Armature_Bone.005",
            "rotation" : [
                -0.0763755589723587,
                -0.7064425349235535,
                0.0021134247072041035,
                0.7036343216896057
            ],
            "scale" : [
                0.9999998807907104,
                0.9999999403953552,
                1.0
            ],
            "translation" : [
                -1.4368083611770999e-08,
                0.40824994444847107,
                -4.656612873077393e-10
            ]
        },
        {
            "name" : "Armature_Bone.006",
            "rotation" : [
                0.4820011556148529,
                0.5044098496437073,
                -0.49579015374183655,
                0.5171438455581665
            ],
            "scale" : [
                0.9999997019767761,
                0.9999997019767761,
                0.9999998211860657
            ],
            "translation" : [
                5.842593964189291e-09,
                0.4310152530670166,
                -2.007206489906821e-08
            ]
        },
        {
            "children" : [
                16
            ],
            "name" : "Armature_Bone.013",
            "rotation" : [
                -0.012501281686127186,
                0.09719367325305939,
                0.9925976395606995,
                0.07174412161111832
            ],
            "scale" : [
                0.9999996423721313,
                1.0,
                0.9999992847442627
            ],
            "translation" : [
                -0.13910530507564545,
                -0.02721559815108776,
                -0.028968825936317444
            ]
        },
        {
            "children" : [
                17
            ],
            "name" : "Armature_Bone.014",
            "rotation" : [
                -0.003020291915163398,
                -0.7126369476318359,
                0.07634498924016953,
                0.6973599791526794
            ],
            "scale" : [
                1.0,
                1.0,
                0.9999999403953552
            ],
            "translation" : [
                -4.656612873077393e-10,
                0.4082498550415039,
                1.0477378964424133e-08
            ]
        },
        {
            "name" : "Armature_Bone.015",
            "rotation" : [
                0.49556002020835876,
                0.5173817873001099,
                -0.48223790526390076,
                0.5041656494140625
            ],
            "scale" : [
                0.9999999403953552,
                1.0,
                0.9999998807907104
            ],
            "translation" : [
                -7.807102520018816e-09,
                0.43101537227630615,
                1.3526005204766989e-08
            ]
        }
    ],
    "samplers" : [
        {}
    ],
    "scene" : 0,
    "scenes" : [
        {
            "name" : "Scene",
            "nodes" : [
                0
            ]
        }
    ],
    "skins" : [
        {
            "inverseBindMatrices" : 9,
            "joints" : [
                2,
                3,
                4,
                5,
                6,
                7,
                8,
                9,
                10,
                11,
                12,
                13,
                14,
                15,
                16,
                17
            ],
            "skeleton" : 0
        }
    ],
    "textures" : [
        {
            "sampler" : 0,
            "source" : 0
        }
    ]
}
